<?xml version="1.0" standalone="no"?>
<!DOCTYPE svg PUBLIC "-//W3C//DTD SVG 20010904//EN"
 "http://www.w3.org/TR/2001/REC-SVG-20010904/DTD/svg10.dtd">
<svg version="1.0" xmlns="http://www.w3.org/2000/svg"
 width="674.000000pt" height="674.000000pt" viewBox="0 0 674.000000 674.000000"
 preserveAspectRatio="xMidYMid meet">
<metadata>
Created by potrace 1.11, written by Peter Selinger 2001-2013
</metadata>
<g transform="translate(0.000000,674.000000) scale(0.100000,-0.100000)"
fill="#000000" stroke="none">
<path d="M3267 6734 c-1 -1 -24 -4 -52 -8 -103 -13 -158 -21 -215 -31 -8 -2
-37 -6 -64 -9 -27 -4 -52 -9 -55 -11 -3 -1 -24 -6 -46 -9 -22 -4 -69 -14 -105
-22 -36 -9 -76 -18 -90 -20 -103 -19 -416 -117 -580 -181 -187 -74 -457 -208
-570 -283 -14 -9 -54 -36 -89 -59 -77 -51 -122 -82 -137 -96 -6 -5 -23 -19
-38 -30 -16 -11 -33 -24 -40 -30 -6 -5 -34 -28 -61 -50 -82 -64 -304 -293
-392 -403 -183 -227 -337 -491 -448 -767 -44 -110 -126 -357 -140 -422 -2 -10
-13 -57 -24 -105 -11 -47 -23 -99 -26 -115 -2 -15 -7 -37 -9 -48 -2 -11 -7
-45 -11 -75 -4 -30 -9 -64 -11 -75 -2 -11 -7 -47 -10 -80 -3 -33 -8 -71 -11
-85 -2 -14 -7 -129 -9 -256 -4 -182 -2 -252 11 -330 9 -55 18 -119 21 -144 4
-44 42 -285 50 -325 3 -11 9 -40 14 -65 5 -25 16 -76 25 -115 10 -38 18 -74
19 -80 2 -5 8 -30 15 -55 7 -25 13 -47 13 -50 0 -18 90 -255 134 -355 167
-379 401 -697 723 -985 40 -36 78 -70 84 -76 39 -35 249 -189 342 -249 209
-136 526 -305 705 -375 30 -12 69 -28 85 -35 155 -72 590 -180 800 -200 33 -3
85 -8 115 -12 64 -7 392 -6 465 1 28 3 79 8 115 11 177 16 623 121 702 165 10
6 23 10 29 10 14 0 217 86 334 141 402 190 881 554 974 740 21 41 62 94 119
153 49 50 121 132 160 181 40 50 82 101 92 113 11 13 20 25 20 26 0 1 34 53
75 115 88 133 217 391 274 546 35 97 95 297 107 359 2 11 8 44 14 71 5 28 12
68 16 90 3 22 7 51 9 65 31 206 33 530 4 730 -6 41 -13 91 -15 110 -10 65 -35
184 -55 255 -11 39 -22 77 -24 85 -2 8 -19 60 -38 115 -89 251 -169 412 -313
630 -207 312 -468 573 -789 786 -186 125 -531 287 -720 339 -277 77 -445 106
-685 116 -74 4 -136 7 -137 8 -1 1 -4 37 -7 80 -25 340 -202 577 -488 656 -63
17 -153 31 -161 24z"/>
</g>
</svg>
